<?xml version="1.0" encoding="utf-8"?>
<!-- Generated by IcoMoon.io -->
<!DOCTYPE svg PUBLIC "-//W3C//DTD SVG 1.1//EN" "http://www.w3.org/Graphics/SVG/1.1/DTD/svg11.dtd">
<svg version="1.1" xmlns="http://www.w3.org/2000/svg" xmlns:xlink="http://www.w3.org/1999/xlink" width="24" height="24" viewBox="0 0 24 24">
<path d="M12 0c-6.627 0-12 5.373-12 12s5.372 12 12 12c6.627 0 12-5.373 12-12s-5.373-12-12-12zM13.164 16.034c-1.090-0.085-1.548-0.625-2.402-1.144-0.47 2.465-1.044 4.828-2.745 6.063-0.525-3.726 0.771-6.524 1.373-9.495-1.026-1.727 0.124-5.204 2.288-4.347 2.663 1.053-2.306 6.422 1.030 7.093 3.483 0.7 4.905-6.044 2.746-8.236-3.121-3.167-9.084-0.072-8.351 4.461 0.178 1.108 1.324 1.445 0.458 2.974-1.997-0.443-2.593-2.018-2.517-4.118 0.123-3.438 3.089-5.844 6.063-6.177 3.761-0.421 7.292 1.381 7.779 4.919 0.549 3.994-1.698 8.319-5.72 8.008z" fill="#1b1b1b"></path>
</svg>
