<?xml version="1.0" encoding="utf-8"?>
<!-- Generated by IcoMoon.io -->
<!DOCTYPE svg PUBLIC "-//W3C//DTD SVG 1.1//EN" "http://www.w3.org/Graphics/SVG/1.1/DTD/svg11.dtd">
<svg version="1.1" xmlns="http://www.w3.org/2000/svg" xmlns:xlink="http://www.w3.org/1999/xlink" width="24" height="24" viewBox="0 0 24 24">
<path d="M12 1.5c-0.564 0-1.118 0.042-1.66 0.122-0.007-0.018-0.015-0.036-0.023-0.054 0.301-0.234 0.458-0.559 0.39-0.88-0.088-0.412-0.525-0.688-1.088-0.688-0.121 0-0.245 0.013-0.367 0.039-0.707 0.15-1.175 0.671-1.066 1.185 0.066 0.313 0.335 0.547 0.707 0.642-0.001 0.023-0 0.046 0.001 0.069-4.702 1.348-8.143 5.68-8.143 10.815 0 6.213 5.037 11.25 11.25 11.25s11.25-5.037 11.25-11.25c0-6.213-5.037-11.25-11.25-11.25zM8.552 1.146c-0.063-0.298 0.293-0.637 0.777-0.74 0.097-0.021 0.194-0.031 0.29-0.031 0.376 0 0.673 0.161 0.722 0.391 0.037 0.176-0.072 0.366-0.267 0.513-0.165-0.116-0.375-0.167-0.588-0.122s-0.383 0.176-0.487 0.348c-0.239-0.057-0.41-0.189-0.447-0.36zM18.032 18.782c-1.030 1.030-2.278 1.764-3.64 2.16l-0.994-1.612-0.252 1.874c-0.377 0.050-0.76 0.077-1.147 0.077-2.279 0-4.421-0.887-6.032-2.499-1.031-1.030-1.764-2.278-2.16-3.64l1.612-0.994-1.874-0.252c-0.050-0.377-0.077-0.76-0.077-1.147 0-2.279 0.887-4.421 2.499-6.032 1.030-1.031 2.278-1.764 3.64-2.16l0.994 1.612 0.252-1.874c0.377-0.050 0.76-0.077 1.147-0.077 2.279 0 4.421 0.887 6.032 2.499 1.030 1.030 1.764 2.278 2.16 3.64l-1.612 0.994 1.874 0.252c0.050 0.377 0.077 0.76 0.077 1.147 0 2.279-0.887 4.421-2.499 6.032zM17.834 6.916l-4.617 3.509c-0.343-0.179-0.724-0.283-1.111-0.298l-1.197-2.512-0.072 2.781c-0.311 0.153-0.588 0.367-0.817 0.632l-1.479-0.524 1.080 1.138c-0.148 0.317-0.231 0.657-0.245 1.004l-2.512 1.197 2.783 0.072c0.009 0.018 0.018 0.036 0.027 0.053l-3.509 4.617 4.617-3.509c0.343 0.179 0.724 0.283 1.111 0.298l1.197 2.512 0.072-2.781c0.311-0.153 0.588-0.367 0.817-0.632l1.479 0.524-1.080-1.138c0.149-0.317 0.231-0.657 0.245-1.004l2.511-1.197-2.783-0.072c-0.009-0.018-0.018-0.036-0.027-0.053l3.509-4.617zM12.002 10.419v0zM11.532 10.549c0.158-0.034 0.315-0.050 0.47-0.050 0.097 0 0.193 0.006 0.288 0.019l0.002 0.001-0-0.001c0.205 0.027 0.403 0.082 0.589 0.162l-1.677 1.274-1.275 1.677c-0.056-0.131-0.1-0.269-0.131-0.414-0.258-1.215 0.518-2.41 1.733-2.669zM13.175 14.669v0 0c-0.212 0.13-0.45 0.227-0.707 0.282-0.158 0.034-0.315 0.050-0.47 0.050-0.097 0-0.194-0.006-0.288-0.019l-0.002-0c-0.205-0.027-0.403-0.082-0.589-0.162l1.677-1.274 1.275-1.677c0.056 0.131 0.1 0.269 0.131 0.414 0.204 0.958-0.236 1.903-1.026 2.387z" fill="#1b1b1b"></path>
</svg>
