<svg xmlns="http://www.w3.org/2000/svg"><symbol viewBox="0 0 24 24" id="Icon-add--outline"><title>add--outline</title> <path d="M13 7h-2v4h-4v2h4v4h2v-4h4v-2h-4v-4zM12 2c-5.525 0-10 4.475-10 10s4.475 10 10 10 10-4.475 10-10-4.475-10-10-10zM12 20c-4.41 0-8-3.59-8-8s3.59-8 8-8 8 3.59 8 8-3.59 8-8 8z"/> </symbol><symbol viewBox="0 0 24 24" id="Icon-add"><title>add</title> <path d="M12 2c-5.525 0-10 4.475-10 10s4.475 10 10 10 10-4.475 10-10-4.475-10-10-10zM17 13h-4v4h-2v-4h-4v-2h4v-4h2v4h4v2z"/> </symbol><symbol viewBox="0 0 24 24" id="Icon-cached"><title>cached</title> <path d="M19 8l-4 4h3c0 3.315-2.685 6-6 6-1.015 0-1.965-0.255-2.805-0.695l-1.46 1.46c1.24 0.775 2.695 1.235 4.265 1.235 4.42 0 8-3.58 8-8h3l-4-4zM6 12c0-3.315 2.685-6 6-6 1.015 0 1.965 0.255 2.805 0.695l1.46-1.46c-1.24-0.775-2.695-1.235-4.265-1.235-4.42 0-8 3.58-8 8h-3l4 4 4-4h-3z"/> </symbol><symbol viewBox="0 0 16 16" id="Icon-checkBox--checked"><title>checkBox--checked</title>  <path d="M12.667 2h-9.333c-0.74 0-1.333 0.6-1.333 1.333v9.333c0 0.733 0.593 1.333 1.333 1.333h9.333c0.74 0 1.333-0.6 1.333-1.333v-9.333c0-0.733-0.593-1.333-1.333-1.333zM6.667 11.333l-3.333-3.333 0.94-0.94 2.393 2.387 5.060-5.060 0.94 0.947-6 6z"/> </symbol><symbol id="Icon-checkBox"><title>checkBox</title>  <path d="M12.667 3.333v9.333h-9.333v-9.333h9.333zM12.667 2h-9.333c-0.733 0-1.333 0.6-1.333 1.333v9.333c0 0.733 0.6 1.333 1.333 1.333h9.333c0.733 0 1.333-0.6 1.333-1.333v-9.333c0-0.733-0.6-1.333-1.333-1.333z"/> </symbol><symbol viewBox="0 0 24 24" id="Icon-chrome"><title>chrome</title> <path d="M6.053 10.466l-3.434-5.948c2.199-2.753 5.584-4.517 9.381-4.517 4.393 0 8.234 2.361 10.325 5.883h-9.791c-0.176-0.015-0.354-0.023-0.533-0.023-2.856 0-5.264 1.96-5.947 4.606zM16.296 7.617h6.878c0.533 1.358 0.826 2.836 0.826 4.383 0 6.582-5.299 11.925-11.864 11.998l4.908-8.5c0.691-0.993 1.097-2.199 1.097-3.498 0-1.715-0.707-3.268-1.844-4.383zM7.641 12c0-2.404 1.956-4.359 4.359-4.359s4.359 1.956 4.359 4.359c0 2.404-1.956 4.359-4.359 4.359s-4.359-1.956-4.359-4.359zM13.645 17.917l-3.435 5.95c-5.778-0.864-10.209-5.848-10.209-11.867 0-2.138 0.56-4.145 1.54-5.883l4.899 8.486c0.981 2.089 3.105 3.538 5.561 3.538 0.57 0 1.121-0.078 1.645-0.224z"/> </symbol><symbol viewBox="0 0 24 24" id="Icon-collapse"><title>collapse</title> <path d="M7.415 18.585l1.415 1.415 3.17-3.17 3.17 3.17 1.415-1.415-4.585-4.585-4.585 4.585zM16.585 5.415l-1.415-1.415-3.17 3.17-3.17-3.17-1.415 1.415 4.585 4.585 4.585-4.585z"/> </symbol><symbol viewBox="0 0 24 24" id="Icon-comments"><title>comments</title> <path d="M20 2h-16c-1.105 0-1.99 0.895-1.99 2l-0.010 18 4-4h14c1.105 0 2-0.895 2-2v-12c0-1.105-0.895-2-2-2zM18 14h-12v-2h12v2zM18 11h-12v-2h12v2zM18 8h-12v-2h12v2z"/> </symbol><symbol viewBox="0 0 24 24" id="Icon-email"><title>email</title> <path d="M20 4h-16c-1.105 0-1.99 0.895-1.99 2l-0.010 12c0 1.105 0.895 2 2 2h16c1.105 0 2-0.895 2-2v-12c0-1.105-0.895-2-2-2zM20 8l-8 5-8-5v-2l8 5 8-5v2z"/> </symbol><symbol viewBox="0 0 24 24" id="Icon-exit"><title>exit</title> <path d="M10.085 15.585l1.415 1.415 5-5-5-5-1.415 1.415 2.585 2.585h-9.67v2h9.67l-2.585 2.585zM19 3h-14c-1.105 0-2 0.895-2 2v4h2v-4h14v14h-14v-4h-2v4c0 1.105 0.895 2 2 2h14c1.105 0 2-0.895 2-2v-14c0-1.105-0.895-2-2-2z"/> </symbol><symbol viewBox="0 0 24 24" id="Icon-expand"><title>expand</title> <path d="M12 5.83l3.17 3.17 1.415-1.415-4.585-4.585-4.585 4.585 1.415 1.415 3.17-3.17zM12 18.17l-3.17-3.17-1.415 1.415 4.585 4.585 4.585-4.585-1.415-1.415-3.17 3.17z"/> </symbol><symbol viewBox="0 0 24 24" id="Icon-facebook"><title>facebook</title> <path d="M12 0c6.627 0 12 5.373 12 12 0 6.119-4.581 11.169-10.5 11.907v-8.907h4.125l0.375-3h-4.5v-1.5c0-0.828 0.672-1.5 1.5-1.5h3v-3h-3c-2.485 0-4.5 2.015-4.5 4.5v1.5h-2.25v3h2.25v8.907c-5.919-0.738-10.5-5.787-10.5-11.907 0-6.627 5.373-12 12-12z"/> </symbol><symbol viewBox="0 0 24 24" id="Icon-favorite"><title>favorite</title> <path d="M12 21.35l-1.45-1.315c-5.15-4.675-8.55-7.76-8.55-11.535 0-3.085 2.415-5.5 5.5-5.5 1.74 0 3.41 0.81 4.5 2.085 1.090-1.275 2.76-2.085 4.5-2.085 3.085 0 5.5 2.415 5.5 5.5 0 3.775-3.4 6.86-8.55 11.535l-1.45 1.315z"/> </symbol><symbol viewBox="0 0 24 24" id="Icon-firefox"><title>firefox</title> <path d="M23.965 7.831l-0.278 1.783c0 0-0.397-3.301-0.884-4.535-0.746-1.891-1.078-1.876-1.081-1.873 0.5 1.27 0.409 1.953 0.409 1.953s-0.886-2.414-3.228-3.182c-2.594-0.85-3.998-0.618-4.16-0.574-0.025-0-0.048-0-0.071-0 0.019 0.001 0.038 0.003 0.057 0.005-0.001 0-0.002 0.001-0.002 0.001 0.011 0.013 2.867 0.499 3.373 1.195 0 0-1.213 0-2.42 0.348-0.055 0.016 4.442 0.562 5.361 5.055 0 0-0.493-1.028-1.102-1.203 0.401 1.22 0.298 3.534-0.084 4.684-0.049 0.148-0.099-0.639-0.851-0.979 0.241 1.726-0.014 4.464-1.212 5.218-0.093 0.059 0.751-2.703 0.17-1.635-3.345 5.128-7.299 2.367-9.076 1.151 0.911 0.198 2.64-0.031 3.406-0.6 0.001-0.001 0.002-0.001 0.003-0.002 0.831-0.568 1.324-0.984 1.766-0.885s0.737-0.345 0.393-0.739c-0.344-0.395-1.179-0.937-2.309-0.641-0.797 0.209-1.784 1.090-3.292 0.198-1.157-0.686-1.266-1.255-1.276-1.649 0.029-0.14 0.065-0.27 0.107-0.39 0.133-0.372 0.537-0.484 0.762-0.573 0.381 0.065 0.709 0.184 1.054 0.361 0.004-0.115 0.006-0.267-0-0.44 0.033-0.066 0.013-0.264-0.040-0.506-0.031-0.242-0.080-0.492-0.158-0.719 0-0 0-0 0.001-0 0.001-0 0.003-0.001 0.004-0.002s0.003-0.003 0.005-0.004c0-0 0.001-0.001 0.001-0.001 0.002-0.003 0.004-0.006 0.005-0.011 0.024-0.108 0.282-0.317 0.603-0.541 0.288-0.201 0.626-0.415 0.892-0.58 0.236-0.146 0.415-0.255 0.453-0.284 0.014-0.011 0.032-0.024 0.051-0.038 0.004-0.003 0.007-0.005 0.011-0.008 0.002-0.002 0.004-0.003 0.007-0.005 0.127-0.101 0.316-0.292 0.356-0.693 0-0.001 0-0.002 0-0.003 0.001-0.012 0.002-0.024 0.003-0.036 0.001-0.008 0.001-0.017 0.002-0.026 0-0.007 0.001-0.013 0.001-0.020 0.001-0.016 0.001-0.032 0.001-0.048 0-0.001 0-0.002 0-0.003 0.001-0.039-0-0.079-0.002-0.122-0.001-0.024-0.003-0.045-0.007-0.065-0-0.001-0-0.002-0.001-0.003s-0.001-0.004-0.001-0.006c-0.001-0.003-0.002-0.007-0.003-0.010-0-0-0-0.001-0-0.001-0.001-0.004-0.003-0.007-0.004-0.011-0-0-0-0-0-0-0.041-0.096-0.195-0.133-0.831-0.143-0.001-0-0.001-0-0.002-0v0c-0.259-0.004-0.599-0.005-1.043-0.003-0.779 0.003-1.21-0.762-1.348-1.058 0.188-1.042 0.733-1.785 1.628-2.288 0.017-0.010 0.014-0.017-0.006-0.023 0.175-0.106-2.115-0.003-3.168 1.337-0.935-0.232-1.75-0.217-2.452-0.052-0.135-0.004-0.303-0.021-0.502-0.062-0.467-0.423-1.135-1.205-1.171-2.138 0 0-0.002 0.002-0.006 0.005-0-0.009-0.001-0.018-0.002-0.027 0 0-1.423 1.094-1.21 4.075-0.001 0.048-0.001 0.093-0.003 0.138-0.385 0.522-0.576 0.961-0.59 1.058-0.341 0.695-0.688 1.74-0.969 3.328 0 0 0.197-0.625 0.593-1.333-0.291 0.891-0.519 2.277-0.385 4.356 0 0 0.035-0.461 0.161-1.125 0.098 1.289 0.528 2.881 1.614 4.753 2.085 3.593 5.289 5.408 8.831 5.686 0.629 0.052 1.267 0.053 1.908 0.004 0.059-0.004 0.118-0.009 0.177-0.013 0.726-0.051 1.456-0.161 2.185-0.337 9.965-2.409 8.881-14.442 8.881-14.442z"/> </symbol><symbol viewBox="0 0 24 24" id="Icon-googleplus"><title>googleplus</title> <path d="M10.242 19.176c0 1.759-1.087 3.15-4.166 3.262-1.804-1.026-3.316-2.507-4.381-4.286 0.555-1.371 2.29-2.415 4.273-2.393 0.563 0.006 1.088 0.096 1.564 0.251 1.31 0.911 2.367 1.48 2.633 2.518 0.050 0.21 0.077 0.427 0.077 0.648zM12 0c-3.467 0-6.591 1.471-8.781 3.823 0.866-0.479 1.888-0.765 2.974-0.765 1.572 0 6.010 0 6.010 0l-1.343 1.41h-1.578c1.113 0.638 1.705 1.951 1.705 3.399 0 1.329-0.736 2.4-1.776 3.212-1.014 0.792-1.207 1.124-1.207 1.798 0 0.575 1.212 1.432 1.77 1.85 1.941 1.456 2.334 2.372 2.334 4.192 0 1.845-1.616 3.682-4.356 4.306 1.321 0.5 2.752 0.775 4.248 0.775 6.627 0 12-5.373 12-12s-5.373-12-12-12zM18 9v3h-1.5v-3h-3v-1.5h3v-3h1.5v3h3v1.5h-3zM8.573 7.956c0.279 2.128-0.653 3.497-2.272 3.448s-3.16-1.535-3.439-3.662c-0.28-2.128 0.807-3.756 2.426-3.708s3.005 1.794 3.285 3.921zM5.177 15.048c-1.75 0-3.237 0.604-4.285 1.497-0.574-1.402-0.892-2.936-0.892-4.545 0-1.33 0.217-2.61 0.617-3.806 0.173 2.331 1.813 4.13 4.523 4.13 0.2 0 0.393-0.010 0.583-0.024-0.186 0.357-0.319 0.754-0.319 1.171 0 0.702 0.386 1.103 0.864 1.568-0.361 0-0.709 0.010-1.090 0.010z"/> </symbol><symbol viewBox="0 0 24 24" id="Icon-help"><title>help</title> <path d="M12 2c-5.525 0-10 4.475-10 10s4.475 10 10 10 10-4.475 10-10-4.475-10-10-10zM13 19h-2v-2h2v2zM15.065 11.255l-0.895 0.92c-0.72 0.72-1.17 1.325-1.17 2.825h-2v-0.5c0-1.105 0.45-2.105 1.17-2.83l1.245-1.26c0.36-0.36 0.585-0.86 0.585-1.41 0-1.105-0.895-2-2-2s-2 0.895-2 2h-2c0-2.21 1.79-4 4-4s4 1.79 4 4c0 0.88-0.355 1.675-0.935 2.255z"/> </symbol><symbol viewBox="0 0 24 24" id="Icon-ie"><title>ie</title> <path d="M17.208 14.738h5.532c0.043-0.384 0.060-0.776 0.060-1.176 0-1.88-0.505-3.644-1.386-5.162 0.911-2.421 0.879-4.476-0.341-5.704-1.16-1.155-4.272-0.968-7.791 0.591-0.26-0.020-0.523-0.030-0.788-0.030-4.829 0-8.881 3.323-10.001 7.801 1.515-1.94 3.109-3.346 5.238-4.37-0.194 0.181-1.323 1.304-1.513 1.494-5.614 5.613-7.385 12.945-5.48 14.85 1.448 1.448 4.072 1.203 7.087-0.273 1.402 0.714 2.988 1.116 4.669 1.116 4.527 0 8.363-2.914 9.752-6.971h-5.575c-0.767 1.415-2.268 2.378-3.989 2.378s-3.222-0.963-3.989-2.378c-0.341-0.639-0.537-1.372-0.537-2.148v-0.017h9.053zM8.163 12.019c0.128-2.276 2.020-4.092 4.33-4.092s4.203 1.816 4.33 4.092h-8.661zM21.023 3.839c0.786 0.794 0.766 2.255 0.094 4.079-1.152-1.756-2.825-3.139-4.8-3.929 2.112-0.906 3.83-1.026 4.706-0.15zM2.191 22.67c-1.003-1.003-0.7-3.108 0.591-5.645 0.804 2.256 2.371 4.151 4.391 5.371-2.237 1.015-4.067 1.188-4.982 0.274z"/> </symbol><symbol viewBox="0 0 24 24" id="Icon-info--outline"><title>info--outline</title> <path d="M11 17h2v-6h-2v6zM12 2c-5.525 0-10 4.475-10 10s4.475 10 10 10 10-4.475 10-10-4.475-10-10-10zM12 20c-4.41 0-8-3.59-8-8s3.59-8 8-8 8 3.59 8 8-3.59 8-8 8zM11 9h2v-2h-2v2z"/> </symbol><symbol viewBox="0 0 24 24" id="Icon-info"><title>info</title> <path d="M12 2c-5.525 0-10 4.475-10 10s4.475 10 10 10 10-4.475 10-10-4.475-10-10-10zM13 17h-2v-6h2v6zM13 9h-2v-2h2v2z"/> </symbol><symbol viewBox="0 0 24 24" id="Icon-loading"><title>loading</title> <path d="M13 2.050v3.030c3.39 0.485 6 3.395 6 6.92 0 0.895-0.175 1.75-0.48 2.535l2.6 1.535c0.555-1.245 0.88-2.615 0.88-4.070 0-5.185-3.945-9.445-9-9.95zM12 19c-3.865 0-7-3.135-7-7 0-3.525 2.61-6.435 6-6.92v-3.030c-5.060 0.5-9 4.765-9 9.95 0 5.525 4.47 10 9.995 10 3.31 0 6.235-1.615 8.055-4.090l-2.595-1.53c-1.28 1.595-3.245 2.62-5.455 2.62z"/> </symbol><symbol viewBox="0 0 16 16" id="Icon-local-offer"><title>local-offer</title>  <path d="M14.273 7.72l-5.997-5.997c-0.243-0.24-0.577-0.39-0.943-0.39h-4.667c-0.737 0-1.333 0.597-1.333 1.333v4.667c0 0.37 0.15 0.703 0.393 0.943l6 6c0.24 0.24 0.573 0.39 0.94 0.39s0.703-0.15 0.943-0.39l4.667-4.667c0.24-0.243 0.39-0.577 0.39-0.943 0-0.37-0.15-0.703-0.393-0.947zM3.667 4.667c-0.553 0-1-0.447-1-1s0.447-1 1-1 1 0.447 1 1-0.447 1-1 1z"/> </symbol><symbol viewBox="0 0 24 24" id="Icon-media--image"><title>media--image</title> <path d="M23 18v-12c0-1.105-0.895-2-2-2h-18c-1.105 0-2 0.895-2 2v12c0 1.105 0.895 2 2 2h18c1.105 0 2-0.895 2-2zM8.5 12.5l2.5 3.005 3.5-4.505 4.5 6h-14l3.5-4.5z"/> </symbol><symbol viewBox="0 0 24 24" id="Icon-media--video"><title>media--video</title> <path d="M18 4l2 4h-3l-2-4h-2l2 4h-3l-2-4h-2l2 4h-3l-2-4h-1c-1.105 0-1.99 0.895-1.99 2l-0.010 12c0 1.105 0.895 2 2 2h16c1.105 0 2-0.895 2-2v-14h-4z"/> </symbol><symbol viewBox="0 0 16 16" id="Icon-media-image"><title>media-image</title>  <path d="M15.333 12v-8c0-0.737-0.597-1.333-1.333-1.333h-12c-0.737 0-1.333 0.597-1.333 1.333v8c0 0.737 0.597 1.333 1.333 1.333h12c0.737 0 1.333-0.597 1.333-1.333zM5.667 8.333l1.667 2.003 2.333-3.003 3 4h-9.333l2.333-3z"/> </symbol><symbol viewBox="0 0 16 16" id="Icon-media-play--outline"><title>media-play--outline</title>  <path d="M6.667 11l4-3-4-3v6zM8 1.333c-3.683 0-6.667 2.983-6.667 6.667s2.983 6.667 6.667 6.667 6.667-2.983 6.667-6.667-2.983-6.667-6.667-6.667zM8 13.333c-2.94 0-5.333-2.393-5.333-5.333s2.393-5.333 5.333-5.333 5.333 2.393 5.333 5.333-2.393 5.333-5.333 5.333z"/> </symbol><symbol viewBox="0 0 16 16" id="Icon-media-play"><title>media-play</title>  <path d="M5.333 3.333v9.333l7.333-4.667z"/> </symbol><symbol viewBox="0 0 16 16" id="Icon-media-video"><title>media-video</title>  <path d="M12 2.667l1.333 2.667h-2l-1.333-2.667h-1.333l1.333 2.667h-2l-1.333-2.667h-1.333l1.333 2.667h-2l-1.333-2.667h-0.667c-0.737 0-1.327 0.597-1.327 1.333l-0.007 8c0 0.737 0.597 1.333 1.333 1.333h10.667c0.737 0 1.333-0.597 1.333-1.333v-9.333h-2.667z"/> </symbol><symbol viewBox="0 0 24 24" id="Icon-menu"><title>menu</title> <path d="M2 15.5v2h20v-2h-20zM2 10.5v2h20v-2h-20zM2 5.5v2h20v-2h-20z"/> </symbol><symbol viewBox="0 0 24 24" id="Icon-newWindow"><title>newWindow</title> <path d="M19 19h-14v-14h7v-2h-7c-1.105 0-2 0.895-2 2v14c0 1.105 0.895 2 2 2h14c1.105 0 2-0.895 2-2v-7h-2v7zM14 3v2h3.585l-9.83 9.83 1.415 1.415 9.83-9.83v3.585h2v-7h-7z"/> </symbol><symbol viewBox="0 0 24 24" id="Icon-notAvailable"><title>notAvailable</title> <path d="M12 2c-5.525 0-10 4.475-10 10s4.475 10 10 10 10-4.475 10-10-4.475-10-10-10zM4 12c0-4.42 3.58-8 8-8 1.85 0 3.545 0.635 4.9 1.685l-11.215 11.215c-1.050-1.355-1.685-3.050-1.685-4.9zM12 20c-1.85 0-3.545-0.635-4.9-1.685l11.215-11.215c1.050 1.355 1.685 3.050 1.685 4.9 0 4.42-3.58 8-8 8z"/> </symbol><symbol viewBox="0 0 24 24" id="Icon-opera"><title>opera</title> <path d="M11.954 0c-6.556 0-11.268 4.755-11.268 11.888 0 6.347 4.582 12.112 11.268 12.112 6.752 0 11.358-5.763 11.358-12.112 0-7.19-4.862-11.888-11.359-11.888zM16.133 11.685c-0.002 3.969-0.213 9.621-4.178 9.621v0.001c-3.909 0-4.065-5.655-4.065-9.617 0-4.65 0.435-9.107 4.065-9.107s4.178 4.514 4.178 9.102z"/> </symbol><symbol viewBox="0 0 24 24" id="Icon-pause--outline"><title>pause--outline</title> <path d="M9 16h2v-8h-2v8zM12 2c-5.525 0-10 4.475-10 10s4.475 10 10 10 10-4.475 10-10-4.475-10-10-10zM12 20c-4.41 0-8-3.59-8-8s3.59-8 8-8 8 3.59 8 8-3.59 8-8 8zM13 16h2v-8h-2v8z"/> </symbol><symbol viewBox="0 0 24 24" id="Icon-pause"><title>pause</title> <path d="M6 19h4v-14h-4v14zM14 5v14h4v-14h-4z"/> </symbol><symbol viewBox="0 0 24 24" id="Icon-person"><title>person</title> <path d="M12 12c2.21 0 4-1.795 4-4 0-2.21-1.79-4-4-4s-4 1.79-4 4c0 2.205 1.79 4 4 4zM12 14c-2.665 0-8 1.335-8 4v2h16v-2c0-2.665-5.335-4-8-4z"/> </symbol><symbol viewBox="0 0 24 24" id="Icon-pinterest"><title>pinterest</title> <path d="M12 0c-6.627 0-12 5.373-12 12s5.372 12 12 12c6.627 0 12-5.373 12-12s-5.373-12-12-12zM13.164 16.034c-1.090-0.085-1.548-0.625-2.402-1.144-0.47 2.465-1.044 4.828-2.745 6.063-0.525-3.726 0.771-6.524 1.373-9.495-1.026-1.727 0.124-5.204 2.288-4.347 2.663 1.053-2.306 6.422 1.030 7.093 3.483 0.7 4.905-6.044 2.746-8.236-3.121-3.167-9.084-0.072-8.351 4.461 0.178 1.108 1.324 1.445 0.458 2.974-1.997-0.443-2.593-2.018-2.517-4.118 0.123-3.438 3.089-5.844 6.063-6.177 3.761-0.421 7.292 1.381 7.779 4.919 0.549 3.994-1.698 8.319-5.72 8.008z"/> </symbol><symbol viewBox="0 0 24 24" id="Icon-play--outline"><title>play--outline</title> <path d="M10 16.5l6-4.5-6-4.5v9zM12 2c-5.525 0-10 4.475-10 10s4.475 10 10 10 10-4.475 10-10-4.475-10-10-10zM12 20c-4.41 0-8-3.59-8-8s3.59-8 8-8 8 3.59 8 8-3.59 8-8 8z"/> </symbol><symbol viewBox="0 0 24 24" id="Icon-play"><title>play</title> <path d="M8 5v14l11-7z"/> </symbol><symbol viewBox="0 0 24 24" id="Icon-question-answer"><title>question-answer</title> <path d="M21 6h-2v9h-13v2c0 0.55 0.45 1 1 1h11l4 4v-15c0-0.55-0.45-1-1-1zM17 12v-9c0-0.55-0.45-1-1-1h-13c-0.55 0-1 0.45-1 1v14l4-4h10c0.55 0 1-0.45 1-1z"/> </symbol><symbol viewBox="0 0 16 16" id="Icon-radioButton--checked"><title>radioButton--checked</title>  <path d="M8 4.667c-1.84 0-3.333 1.493-3.333 3.333s1.493 3.333 3.333 3.333 3.333-1.493 3.333-3.333-1.493-3.333-3.333-3.333zM8 1.333c-3.68 0-6.667 2.987-6.667 6.667s2.987 6.667 6.667 6.667 6.667-2.987 6.667-6.667-2.987-6.667-6.667-6.667zM8 13.333c-2.947 0-5.333-2.387-5.333-5.333s2.387-5.333 5.333-5.333 5.333 2.387 5.333 5.333-2.387 5.333-5.333 5.333z"/> </symbol><symbol viewBox="0 0 16 16" id="Icon-radioButton"><title>radioButton</title>  <path d="M8 1.333c-3.68 0-6.667 2.987-6.667 6.667s2.987 6.667 6.667 6.667 6.667-2.987 6.667-6.667-2.987-6.667-6.667-6.667zM8 13.333c-2.947 0-5.333-2.387-5.333-5.333s2.387-5.333 5.333-5.333 5.333 2.387 5.333 5.333-2.387 5.333-5.333 5.333z"/> </symbol><symbol viewBox="0 0 24 24" id="Icon-remove--outline"><title>remove--outline</title> <path d="M14.585 8l-2.585 2.585-2.585-2.585-1.415 1.415 2.585 2.585-2.585 2.585 1.415 1.415 2.585-2.585 2.585 2.585 1.415-1.415-2.585-2.585 2.585-2.585-1.415-1.415zM12 2c-5.525 0-10 4.475-10 10s4.475 10 10 10 10-4.475 10-10-4.475-10-10-10zM12 20c-4.41 0-8-3.59-8-8s3.59-8 8-8 8 3.59 8 8-3.59 8-8 8z"/> </symbol><symbol viewBox="0 0 24 24" id="Icon-remove"><title>remove</title> <path d="M12 2c-5.525 0-10 4.475-10 10s4.475 10 10 10 10-4.475 10-10-4.475-10-10-10zM17 15.585l-1.415 1.415-3.585-3.585-3.585 3.585-1.415-1.415 3.585-3.585-3.585-3.585 1.415-1.415 3.585 3.585 3.585-3.585 1.415 1.415-3.585 3.585 3.585 3.585z"/> </symbol><symbol viewBox="0 0 24 24" id="Icon-safari"><title>safari</title> <path d="M12 1.5c-0.564 0-1.118 0.042-1.66 0.122-0.007-0.018-0.015-0.036-0.023-0.054 0.301-0.234 0.458-0.559 0.39-0.88-0.088-0.412-0.525-0.688-1.088-0.688-0.121 0-0.245 0.013-0.367 0.039-0.707 0.15-1.175 0.671-1.066 1.185 0.066 0.313 0.335 0.547 0.707 0.642-0.001 0.023-0 0.046 0.001 0.069-4.702 1.348-8.143 5.68-8.143 10.815 0 6.213 5.037 11.25 11.25 11.25s11.25-5.037 11.25-11.25c0-6.213-5.037-11.25-11.25-11.25zM8.552 1.146c-0.063-0.298 0.293-0.637 0.777-0.74 0.097-0.021 0.194-0.031 0.29-0.031 0.376 0 0.673 0.161 0.722 0.391 0.037 0.176-0.072 0.366-0.267 0.513-0.165-0.116-0.375-0.167-0.588-0.122s-0.383 0.176-0.487 0.348c-0.239-0.057-0.41-0.189-0.447-0.36zM18.032 18.782c-1.030 1.030-2.278 1.764-3.64 2.16l-0.994-1.612-0.252 1.874c-0.377 0.050-0.76 0.077-1.147 0.077-2.279 0-4.421-0.887-6.032-2.499-1.031-1.030-1.764-2.278-2.16-3.64l1.612-0.994-1.874-0.252c-0.050-0.377-0.077-0.76-0.077-1.147 0-2.279 0.887-4.421 2.499-6.032 1.030-1.031 2.278-1.764 3.64-2.16l0.994 1.612 0.252-1.874c0.377-0.050 0.76-0.077 1.147-0.077 2.279 0 4.421 0.887 6.032 2.499 1.030 1.030 1.764 2.278 2.16 3.64l-1.612 0.994 1.874 0.252c0.050 0.377 0.077 0.76 0.077 1.147 0 2.279-0.887 4.421-2.499 6.032zM17.834 6.916l-4.617 3.509c-0.343-0.179-0.724-0.283-1.111-0.298l-1.197-2.512-0.072 2.781c-0.311 0.153-0.588 0.367-0.817 0.632l-1.479-0.524 1.080 1.138c-0.148 0.317-0.231 0.657-0.245 1.004l-2.512 1.197 2.783 0.072c0.009 0.018 0.018 0.036 0.027 0.053l-3.509 4.617 4.617-3.509c0.343 0.179 0.724 0.283 1.111 0.298l1.197 2.512 0.072-2.781c0.311-0.153 0.588-0.367 0.817-0.632l1.479 0.524-1.080-1.138c0.149-0.317 0.231-0.657 0.245-1.004l2.511-1.197-2.783-0.072c-0.009-0.018-0.018-0.036-0.027-0.053l3.509-4.617zM12.002 10.419v0zM11.532 10.549c0.158-0.034 0.315-0.050 0.47-0.050 0.097 0 0.193 0.006 0.288 0.019l0.002 0.001-0-0.001c0.205 0.027 0.403 0.082 0.589 0.162l-1.677 1.274-1.275 1.677c-0.056-0.131-0.1-0.269-0.131-0.414-0.258-1.215 0.518-2.41 1.733-2.669zM13.175 14.669v0 0c-0.212 0.13-0.45 0.227-0.707 0.282-0.158 0.034-0.315 0.050-0.47 0.050-0.097 0-0.194-0.006-0.288-0.019l-0.002-0c-0.205-0.027-0.403-0.082-0.589-0.162l1.677-1.274 1.275-1.677c0.056 0.131 0.1 0.269 0.131 0.414 0.204 0.958-0.236 1.903-1.026 2.387z"/> </symbol><symbol viewBox="0 0 24 24" id="Icon-search"><title>search</title> <path d="M15.5 14h-0.795l-0.275-0.275c0.98-1.135 1.57-2.61 1.57-4.225 0-3.59-2.91-6.5-6.5-6.5s-6.5 2.91-6.5 6.5 2.91 6.5 6.5 6.5c1.615 0 3.090-0.59 4.225-1.565l0.275 0.275v0.79l5 4.99 1.49-1.49-4.99-5zM9.5 14c-2.485 0-4.5-2.015-4.5-4.5s2.015-4.5 4.5-4.5 4.5 2.015 4.5 4.5-2.015 4.5-4.5 4.5z"/> </symbol><symbol viewBox="0 0 24 24" id="Icon-settings"><title>settings</title> <path d="M19.43 12.975c0.040-0.32 0.070-0.645 0.070-0.975s-0.030-0.655-0.070-0.975l2.115-1.655c0.19-0.15 0.245-0.42 0.12-0.64l-2-3.465c-0.125-0.215-0.385-0.305-0.61-0.215l-2.49 1.005c-0.515-0.395-1.080-0.73-1.69-0.985l-0.375-2.65c-0.045-0.235-0.25-0.42-0.5-0.42h-4c-0.25 0-0.455 0.185-0.495 0.42l-0.375 2.65c-0.61 0.255-1.175 0.585-1.69 0.985l-2.49-1.005c-0.225-0.085-0.485 0-0.61 0.215l-2 3.465c-0.125 0.215-0.070 0.485 0.12 0.64l2.11 1.655c-0.040 0.32-0.070 0.645-0.070 0.975s0.030 0.655 0.070 0.975l-2.11 1.655c-0.19 0.15-0.245 0.42-0.12 0.64l2 3.465c0.125 0.215 0.385 0.305 0.61 0.215l2.49-1.005c0.515 0.395 1.080 0.73 1.69 0.985l0.375 2.65c0.040 0.235 0.245 0.42 0.495 0.42h4c0.25 0 0.455-0.185 0.495-0.42l0.375-2.65c0.61-0.255 1.175-0.585 1.69-0.985l2.49 1.005c0.225 0.085 0.485 0 0.61-0.215l2-3.465c0.125-0.215 0.070-0.485-0.12-0.64l-2.11-1.655zM12 15.5c-1.935 0-3.5-1.565-3.5-3.5s1.565-3.5 3.5-3.5 3.5 1.565 3.5 3.5-1.565 3.5-3.5 3.5z"/> </symbol><symbol viewBox="0 0 24 24" id="Icon-share"><title>share</title> <path d="M18 16.085c-0.76 0-1.445 0.295-1.965 0.77l-7.125-4.155c0.055-0.225 0.090-0.46 0.090-0.7s-0.035-0.475-0.090-0.7l7.050-4.115c0.535 0.5 1.25 0.81 2.040 0.81 1.655 0 3-1.345 3-3s-1.345-3-3-3-3 1.345-3 3c0 0.24 0.035 0.475 0.090 0.7l-7.050 4.115c-0.535-0.5-1.25-0.81-2.040-0.81-1.655 0-3 1.345-3 3s1.345 3 3 3c0.79 0 1.505-0.31 2.040-0.81l7.125 4.155c-0.050 0.21-0.080 0.43-0.080 0.655 0 1.61 1.305 2.915 2.915 2.915s2.915-1.305 2.915-2.915-1.305-2.915-2.915-2.915z"/> </symbol><symbol viewBox="0 0 24 24" id="Icon-success"><title>success</title> <path d="M9 16.17l-4.17-4.17-1.415 1.415 5.585 5.585 12-12-1.415-1.415z"/> </symbol><symbol viewBox="0 0 24 24" id="Icon-tag"><title>tag</title> <path d="M21.41 11.58l-8.995-8.995c-0.365-0.36-0.865-0.585-1.415-0.585h-7c-1.105 0-2 0.895-2 2v7c0 0.555 0.225 1.055 0.59 1.415l9 9c0.36 0.36 0.86 0.585 1.41 0.585s1.055-0.225 1.415-0.585l7-7c0.36-0.365 0.585-0.865 0.585-1.415 0-0.555-0.225-1.055-0.59-1.42zM5.5 7c-0.83 0-1.5-0.67-1.5-1.5s0.67-1.5 1.5-1.5 1.5 0.67 1.5 1.5-0.67 1.5-1.5 1.5z"/> </symbol><symbol viewBox="0 0 16 16" id="Icon-thumb-down"><title>thumb-down</title>  <path d="M10 2h-6c-0.553 0-1.027 0.337-1.227 0.813l-2.010 4.7c-0.060 0.153-0.097 0.317-0.097 0.487v1.277l0.007 0.007-0.007 0.050c0 0.737 0.597 1.333 1.333 1.333h4.21l-0.637 3.047c-0.013 0.067-0.023 0.137-0.023 0.21 0 0.277 0.113 0.527 0.293 0.707l0.71 0.703 4.39-4.39c0.24-0.243 0.39-0.577 0.39-0.943v-6.667c0-0.737-0.597-1.333-1.333-1.333zM12.667 2v8h2.667v-8h-2.667z"/> </symbol><symbol viewBox="0 0 16 16" id="Icon-thumb-up"><title>thumb-up</title>  <path d="M0.667 14h2.667v-8h-2.667v8zM15.333 6.667c0-0.737-0.597-1.333-1.333-1.333h-4.21l0.637-3.047c0.013-0.067 0.023-0.137 0.023-0.21 0-0.277-0.113-0.527-0.293-0.707l-0.71-0.703-4.39 4.39c-0.24 0.243-0.39 0.577-0.39 0.943v6.667c0 0.737 0.597 1.333 1.333 1.333h6c0.553 0 1.027-0.337 1.227-0.813l2.010-4.7c0.060-0.153 0.097-0.317 0.097-0.487v-1.277l-0.007-0.007 0.007-0.050z"/> </symbol><symbol viewBox="0 0 24 24" id="Icon-thumbDown"><title>thumbDown</title> <path d="M15 3h-9c-0.83 0-1.54 0.505-1.84 1.22l-3.015 7.050c-0.090 0.23-0.145 0.475-0.145 0.73v1.915l0.010 0.010-0.010 0.075c0 1.105 0.895 2 2 2h6.315l-0.955 4.57c-0.020 0.1-0.035 0.205-0.035 0.315 0 0.415 0.17 0.79 0.44 1.060l1.065 1.055 6.585-6.585c0.36-0.365 0.585-0.865 0.585-1.415v-10c0-1.105-0.895-2-2-2zM19 3v12h4v-12h-4z"/> </symbol><symbol viewBox="0 0 24 24" id="Icon-thumbUp"><title>thumbUp</title> <path d="M1 21h4v-12h-4v12zM23 10c0-1.105-0.895-2-2-2h-6.315l0.955-4.57c0.020-0.1 0.035-0.205 0.035-0.315 0-0.415-0.17-0.79-0.44-1.060l-1.065-1.055-6.585 6.585c-0.36 0.365-0.585 0.865-0.585 1.415v10c0 1.105 0.895 2 2 2h9c0.83 0 1.54-0.505 1.84-1.22l3.015-7.050c0.090-0.23 0.145-0.475 0.145-0.73v-1.915l-0.010-0.010 0.010-0.075z"/> </symbol><symbol viewBox="0 0 24 24" id="Icon-time"><title>time</title> <path d="M22 5.72l-4.595-3.855-1.285 1.53 4.595 3.855 1.285-1.53zM7.88 3.39l-1.285-1.53-4.595 3.855 1.285 1.53 4.595-3.855zM12.5 8h-1.5v6l4.745 2.855 0.755-1.235-4-2.37v-5.25zM11.995 4c-4.975 0-8.995 4.030-8.995 9s4.020 9 8.995 9 9.005-4.030 9.005-9-4.030-9-9.005-9zM12 20c-3.865 0-7-3.135-7-7s3.135-7 7-7 7 3.135 7 7-3.13 7-7 7z"/> </symbol><symbol viewBox="0 0 24 24" id="Icon-twitter"><title>twitter</title> <path d="M12 0c-6.627 0-12 5.373-12 12s5.373 12 12 12 12-5.373 12-12-5.373-12-12-12zM18.896 8.463c0.007 0.153 0.010 0.306 0.010 0.46 0 4.702-3.579 10.124-10.124 10.124-2.009 0-3.88-0.589-5.455-1.599 0.278 0.033 0.562 0.050 0.849 0.050 1.667 0 3.201-0.569 4.419-1.523-1.557-0.029-2.871-1.058-3.324-2.471 0.217 0.041 0.44 0.064 0.67 0.064 0.325 0 0.639-0.043 0.937-0.125-1.628-0.327-2.854-1.765-2.854-3.489 0-0.015 0-0.030 0-0.045 0.48 0.266 1.028 0.427 1.612 0.445-0.955-0.638-1.583-1.727-1.583-2.962 0-0.652 0.176-1.263 0.482-1.789 1.755 2.153 4.377 3.569 7.334 3.718-0.061-0.261-0.092-0.532-0.092-0.811 0-1.965 1.593-3.558 3.558-3.558 1.023 0 1.948 0.432 2.597 1.124 0.81-0.16 1.572-0.456 2.26-0.863-0.266 0.831-0.83 1.528-1.564 1.969 0.72-0.086 1.405-0.277 2.044-0.56-0.477 0.714-1.080 1.34-1.776 1.842z"/> </symbol><symbol viewBox="0 0 24 24" id="Icon-view--grid"><title>view--grid</title> <path d="M4 11h5v-6h-5v6zM4 18h5v-6h-5v6zM10 18h5v-6h-5v6zM16 18h5v-6h-5v6zM10 11h5v-6h-5v6zM16 5v6h5v-6h-5z"/> </symbol><symbol viewBox="0 0 24 24" id="Icon-view--list"><title>view--list</title> <path d="M4 14h4v-4h-4v4zM4 19h4v-4h-4v4zM4 9h4v-4h-4v4zM9 14h12v-4h-12v4zM9 19h12v-4h-12v4zM9 5v4h12v-4h-12z"/> </symbol><symbol viewBox="0 0 24 24" id="Icon-warning"><title>warning</title> <path d="M1 21h22l-11-19-11 19zM13 18h-2v-2h2v2zM13 14h-2v-4h2v4z"/> </symbol></svg>